<svg xmlns="http://www.w3.org/2000/svg" width="512" height="512" viewBox="0 0 512 512">
  <defs>
    <linearGradient id="g" x1="0" y1="0" x2="1" y2="1">
      <stop offset="0" stop-color="#FFC15A"/><stop offset=".55" stop-color="#FF6F91"/><stop offset="1" stop-color="#7C5CFF"/>
    </linearGradient>
    <radialGradient id="face" cx=".5" cy=".42" r=".62">
      <stop offset="0" stop-color="#3A2B4A"/><stop offset="1" stop-color="#0E0E13"/>
    </radialGradient>
  </defs>
  <rect width="512" height="512" rx="112" fill="#14141A"/>
  <rect x="6" y="6" width="500" height="500" rx="106" fill="none" stroke="#2A2A34" stroke-width="4"/>

  <!-- bands: width 108 ~= 0.46 x case diameter (Pixel Watch 4: ~20mm band on 41mm case) -->
  <rect x="202" y="92" width="108" height="86" rx="16" fill="#42424E"/>
  <rect x="202" y="334" width="108" height="86" rx="16" fill="#42424E"/>
  <rect x="202" y="92" width="108" height="16" rx="8" fill="#4E4E5B"/>
  <rect x="202" y="404" width="108" height="16" rx="8" fill="#4E4E5B"/>

  <!-- round domed watch body -->
  <circle cx="256" cy="256" r="116" fill="#0E0E13"/>
  <circle cx="256" cy="256" r="116" fill="none" stroke="url(#g)" stroke-width="11"/>
  <circle cx="256" cy="256" r="104" fill="url(#face)"/>

  <!-- crown only (grey button removed) -->
  <rect x="368" y="240" width="18" height="30" rx="9" fill="url(#g)"/>

  <!-- bulb glyph -->
  <path d="M256 206 a42 42 0 0 1 25 76 c-6 5 -8 9 -9 15 h-32 c-1 -6 -3 -10 -9 -15 a42 42 0 0 1 25 -76 Z" fill="url(#g)"/>
  <rect x="242" y="300" width="28" height="9" rx="4" fill="#EDEDF2"/>
  <rect x="247" y="312" width="18" height="8" rx="4" fill="#C9C9D2"/>
</svg>
