<svg xmlns="http://www.w3.org/2000/svg" width="512" height="512" viewBox="0 0 512 512">
  <defs>
    <linearGradient id="hue3" x1="0" y1="0" x2="1" y2="1">
      <stop offset="0" stop-color="#FFC15A"/><stop offset=".55" stop-color="#FF6F91"/><stop offset="1" stop-color="#7C5CFF"/>
    </linearGradient>
  </defs>
  <rect width="512" height="512" rx="112" fill="#14141A"/>
  <rect x="6" y="6" width="500" height="500" rx="106" fill="none" stroke="#2A2A34" stroke-width="4"/>
  <!-- straps -->
  <rect x="222" y="96" width="68" height="96" rx="18" fill="#3A3A46"/>
  <rect x="222" y="320" width="68" height="96" rx="18" fill="#3A3A46"/>
  <!-- watch body -->
  <rect x="150" y="150" width="212" height="212" rx="70" fill="#0E0E13" stroke="url(#hue3)" stroke-width="10"/>
  <!-- crown -->
  <rect x="366" y="240" width="20" height="34" rx="8" fill="url(#hue3)"/>
  <!-- bulb glyph on face -->
  <path d="M256 196 a56 56 0 0 1 35 100 c-8 6 -10 12 -12 20 h-46 c-2 -8 -4 -14 -12 -20 a56 56 0 0 1 35 -100 Z" fill="url(#hue3)"/>
  <rect x="234" y="322" width="44" height="12" rx="5" fill="#EDEDF2"/>
</svg>
