<svg xmlns="http://www.w3.org/2000/svg" width="512" height="512" viewBox="0 0 512 512">
  <defs>
    <linearGradient id="hue3" x1="0" y1="0" x2="1" y2="1">
      <stop offset="0" stop-color="#FFC15A"/><stop offset=".55" stop-color="#FF6F91"/><stop offset="1" stop-color="#7C5CFF"/>
    </linearGradient>
  </defs>
  <rect width="512" height="512" rx="112" fill="#14141A"/>
  <rect x="6" y="6" width="500" height="500" rx="106" fill="none" stroke="#2A2A34" stroke-width="4"/>
  <!-- straps hugging the round body (Pixel Watch style: narrow, tucked under) -->
  <path d="M214 150 q42 -22 84 0 l-6 34 q-36 -14 -72 0 Z" fill="#3A3A46"/>
  <path d="M214 362 q42 22 84 0 l-6 -34 q-36 14 -72 0 Z" fill="#3A3A46"/>
  <!-- round domed watch body -->
  <circle cx="256" cy="256" r="118" fill="#0E0E13" stroke="url(#hue3)" stroke-width="12"/>
  <!-- subtle inner dome ring -->
  <circle cx="256" cy="256" r="100" fill="none" stroke="#2A2A34" stroke-width="3"/>
  <!-- side crown at ~2 o'clock -->
  <rect x="366" y="212" width="22" height="30" rx="9" fill="url(#hue3)" transform="rotate(32 377 227)"/>
  <!-- bulb glyph on the face -->
  <path d="M256 196 a54 54 0 0 1 34 96 c-8 6 -10 12 -12 19 h-44 c-2 -7 -4 -13 -12 -19 a54 54 0 0 1 34 -96 Z" fill="url(#hue3)"/>
  <rect x="235" y="318" width="42" height="11" rx="5" fill="#EDEDF2"/>
</svg>
